<svg version="1.0" xmlns="http://www.w3.org/2000/svg"
 width="512.000000pt" height="512.000000pt" viewBox="0 0 512.000000 512.000000"
 preserveAspectRatio="xMidYMid meet">
<g transform="translate(0.000000,512.000000) scale(0.100000,-0.100000)"
fill="#F5D256" stroke="none">
<path d="M1910 4624 c-427 -47 -764 -217 -1049 -529 -173 -190 -300 -442 -362
-722 -22 -94 -23 -124 -26 -738 -5 -700 -1 -785 47 -968 27 -106 73 -232 89
-250 7 -7 86 17 103 32 4 4 -6 40 -23 81 -42 103 -75 237 -89 356 -8 68 -10
297 -7 739 3 610 5 644 25 732 65 283 190 515 382 711 215 218 471 355 785
419 82 16 152 18 780 18 679 0 692 0 791 -22 210 -47 370 -114 539 -227 107
-72 107 -72 146 -9 l22 36 -24 19 c-174 137 -416 246 -664 300 -96 20 -128 21
-765 23 -366 1 -681 1 -700 -1z"/>
<path d="M4088 4176 l-37 -43 46 -38 46 -39 33 40 c19 21 34 42 34 45 0 8 -72
79 -80 79 -3 0 -22 -20 -42 -44z"/>
<path d="M4232 4039 c-23 -17 -42 -33 -42 -35 0 -3 31 -49 70 -102 120 -167
205 -363 247 -569 16 -79 18 -155 18 -778 0 -676 0 -692 -22 -787 -135 -594
-579 -1023 -1176 -1136 -82 -15 -167 -17 -777 -17 -673 0 -687 0 -786 22 -205
46 -362 111 -522 216 -197 130 -347 291 -478 513 -11 18 -13 18 -59 -6 -25
-14 -48 -28 -50 -31 -6 -9 62 -120 126 -205 233 -312 571 -523 966 -606 104
-21 131 -22 738 -26 691 -4 784 1 974 49 136 34 220 65 337 125 402 205 697
576 808 1014 44 173 48 268 44 955 -4 612 -5 644 -26 736 -47 209 -133 409
-241 566 -62 89 -96 133 -103 133 -2 0 -23 -14 -46 -31z"/>
<path d="M1364 3506 c-28 -13 -67 -43 -87 -67 -69 -80 -68 -63 -65 -865 3
-716 3 -719 25 -760 29 -54 79 -102 133 -128 l45 -21 1145 0 1145 0 45 21 c54
26 104 74 133 128 22 41 22 44 25 760 3 802 4 785 -65 865 -20 24 -59 54 -87
67 l-51 24 -1145 0 -1145 0 -51 -24z m2324 -86 c-1 -5 -71 -69 -153 -142 -796
-703 -968 -853 -975 -853 -11 0 -1130 988 -1130 998 0 4 509 7 1131 7 727 0
1129 -3 1127 -10z m-1985 -381 c194 -171 352 -314 352 -319 0 -5 -164 -195
-365 -424 -242 -277 -367 -412 -372 -403 -4 6 -8 323 -8 703 0 676 3 754 31
754 5 0 168 -140 362 -311z m2096 280 c12 -33 17 -1393 5 -1422 -7 -18 14 -40
-413 447 l-333 379 44 38 c23 20 183 161 353 312 171 152 315 276 322 276 6 1
16 -13 22 -30z m-1454 -846 c109 -97 205 -173 215 -173 11 0 82 55 157 121 76
67 166 146 201 177 54 48 65 53 77 41 8 -8 178 -201 378 -429 345 -393 364
-416 343 -427 -33 -19 -2285 -18 -2311 0 -16 13 12 48 356 440 206 235 377
425 381 424 4 -1 95 -80 203 -174z"/>
</g>
</svg>
