<svg version="1.0" xmlns="http://www.w3.org/2000/svg"
 width="512.000000pt" height="512.000000pt" viewBox="0 0 512.000000 512.000000"
 preserveAspectRatio="xMidYMid meet">
<g transform="translate(0.000000,512.000000) scale(0.100000,-0.100000)"
fill="#F5D256" stroke="none">
<path d="M1910 4624 c-427 -47 -764 -217 -1049 -529 -173 -190 -300 -442 -362
-722 -22 -94 -23 -124 -26 -738 -5 -700 -1 -785 47 -968 27 -106 73 -232 89
-250 7 -7 86 17 103 32 4 4 -6 40 -23 81 -42 103 -75 237 -89 356 -8 68 -10
297 -7 739 3 610 5 644 25 732 65 283 190 515 382 711 215 218 471 355 785
419 82 16 152 18 780 18 679 0 692 0 791 -22 210 -47 370 -114 539 -227 107
-72 107 -72 146 -9 l22 36 -24 19 c-174 137 -416 246 -664 300 -96 20 -128 21
-765 23 -366 1 -681 1 -700 -1z"/>
<path d="M4088 4176 l-37 -43 46 -38 46 -39 33 40 c19 21 34 42 34 45 0 8 -72
79 -80 79 -3 0 -22 -20 -42 -44z"/>
<path d="M4232 4039 c-23 -17 -42 -33 -42 -35 0 -3 31 -49 70 -102 120 -167
205 -363 247 -569 16 -79 18 -155 18 -778 0 -676 0 -692 -22 -787 -135 -594
-579 -1023 -1176 -1136 -82 -15 -167 -17 -777 -17 -673 0 -687 0 -786 22 -205
46 -362 111 -522 216 -197 130 -347 291 -478 513 -11 18 -13 18 -59 -6 -25
-14 -48 -28 -50 -31 -6 -9 62 -120 126 -205 233 -312 571 -523 966 -606 104
-21 131 -22 738 -26 691 -4 784 1 974 49 136 34 220 65 337 125 402 205 697
576 808 1014 44 173 48 268 44 955 -4 612 -5 644 -26 736 -47 209 -133 409
-241 566 -62 89 -96 133 -103 133 -2 0 -23 -14 -46 -31z"/>
<path d="M1757 3893 c-23 -6 -54 -68 -72 -145 -15 -64 -18 -227 -6 -283 5 -24
-1 -45 -31 -101 -77 -145 -113 -291 -112 -459 1 -211 56 -349 193 -486 74 -74
101 -94 191 -138 59 -29 145 -61 195 -73 50 -13 91 -23 92 -23 1 -1 -6 -23
-16 -50 -25 -65 -48 -79 -130 -79 -85 0 -133 24 -197 101 -123 149 -174 183
-269 183 -65 0 -106 -18 -123 -55 -18 -40 4 -79 78 -138 57 -46 71 -66 113
-150 53 -105 110 -173 176 -206 63 -33 148 -51 233 -51 l78 0 0 -114 0 -114
-60 -52 c-82 -71 -92 -123 -30 -155 37 -19 135 -19 189 0 40 14 41 14 41 -9 0
-28 32 -64 65 -72 60 -15 152 23 220 91 l43 43 50 -48 c54 -52 138 -90 198
-90 42 0 84 37 84 73 l0 24 59 -15 c76 -18 145 -9 177 23 44 44 26 88 -66 156
-34 26 -35 28 -42 120 -3 52 -7 151 -7 221 -1 152 -16 268 -41 326 -18 41 -18
42 -1 42 42 0 202 53 291 97 163 79 273 209 315 371 19 75 22 256 5 337 -11
51 -14 56 -33 51 -12 -3 -31 -6 -42 -6 -45 -1 -47 -10 -35 -116 38 -310 -115
-516 -446 -599 -50 -13 -120 -27 -155 -31 -65 -7 -109 -35 -109 -69 0 -9 22
-37 49 -63 30 -30 53 -62 61 -87 6 -22 16 -159 21 -304 7 -184 14 -274 24
-297 16 -39 7 -44 -21 -13 -17 19 -20 44 -25 243 -8 248 -16 293 -60 330 -38
32 -63 33 -94 1 l-25 -24 0 -269 c0 -209 3 -280 15 -318 19 -62 19 -61 -6 -38
-52 47 -54 60 -57 364 -4 326 -2 320 -83 320 -78 0 -76 8 -81 -312 -5 -303 -9
-330 -58 -373 l-23 -20 7 25 c5 14 10 160 13 325 5 285 4 301 -14 324 -40 49
-99 23 -137 -59 -18 -40 -21 -69 -24 -275 -4 -232 -6 -246 -43 -266 -17 -9
-17 -7 -4 26 21 49 21 353 1 381 -13 17 -27 19 -153 19 -131 0 -141 1 -196 28
-39 19 -66 42 -86 70 -29 43 -71 121 -71 132 0 4 23 -18 50 -48 77 -84 121
-102 255 -102 98 0 116 3 165 26 54 25 56 28 72 85 13 44 29 71 63 106 73 76
55 120 -55 132 -182 21 -365 95 -468 191 -74 68 -116 132 -150 227 -22 63 -26
89 -26 193 0 170 34 294 115 430 l42 69 -12 61 c-14 79 -14 189 0 256 l11 51
44 -6 c59 -8 160 -52 262 -114 l83 -50 67 19 c149 42 436 49 624 13 l79 -15
77 45 c95 55 206 103 260 112 l41 6 12 -43 c8 -30 10 -87 6 -176 l-6 -132 38
-83 c22 -46 52 -119 67 -163 15 -44 29 -82 30 -84 2 -2 16 1 31 7 15 6 40 16
55 21 l28 10 -34 93 c-18 51 -46 120 -62 153 -26 57 -27 66 -25 195 2 113 -1
145 -18 200 -12 36 -30 76 -40 90 -18 23 -26 25 -98 24 -88 -1 -182 -33 -308
-106 l-70 -40 -80 11 c-206 28 -469 22 -604 -14 -51 -13 -55 -13 -90 10 -151
95 -348 159 -424 138z"/>
</g>
</svg>
