<svg version="1.0" xmlns="http://www.w3.org/2000/svg"
 width="512.000000pt" height="512.000000pt" viewBox="0 0 512.000000 512.000000"
 preserveAspectRatio="xMidYMid meet">
<g transform="translate(0.000000,512.000000) scale(0.100000,-0.100000)"
fill="#F5D256" stroke="none">
<path d="M1910 4624 c-427 -47 -764 -217 -1049 -529 -173 -190 -300 -442 -362
-722 -22 -94 -23 -124 -26 -738 -5 -700 -1 -785 47 -968 27 -106 73 -232 89
-250 7 -7 86 17 103 32 4 4 -6 40 -23 81 -42 103 -75 237 -89 356 -8 68 -10
297 -7 739 3 610 5 644 25 732 65 283 190 515 382 711 215 218 471 355 785
419 82 16 152 18 780 18 679 0 692 0 791 -22 210 -47 370 -114 539 -227 107
-72 107 -72 146 -9 l22 36 -24 19 c-174 137 -416 246 -664 300 -96 20 -128 21
-765 23 -366 1 -681 1 -700 -1z"/>
<path d="M4088 4176 l-37 -43 46 -38 46 -39 33 40 c19 21 34 42 34 45 0 8 -72
79 -80 79 -3 0 -22 -20 -42 -44z"/>
<path d="M4232 4039 c-23 -17 -42 -33 -42 -35 0 -3 31 -49 70 -102 120 -167
205 -363 247 -569 16 -79 18 -155 18 -778 0 -676 0 -692 -22 -787 -135 -594
-579 -1023 -1176 -1136 -82 -15 -167 -17 -777 -17 -673 0 -687 0 -786 22 -205
46 -362 111 -522 216 -197 130 -347 291 -478 513 -11 18 -13 18 -59 -6 -25
-14 -48 -28 -50 -31 -6 -9 62 -120 126 -205 233 -312 571 -523 966 -606 104
-21 131 -22 738 -26 691 -4 784 1 974 49 136 34 220 65 337 125 402 205 697
576 808 1014 44 173 48 268 44 955 -4 612 -5 644 -26 736 -47 209 -133 409
-241 566 -62 89 -96 133 -103 133 -2 0 -23 -14 -46 -31z"/>
<path d="M1459 3885 c-249 -80 -333 -388 -158 -580 190 -208 527 -131 610 139
51 162 -27 338 -186 419 -49 25 -74 31 -140 34 -52 2 -96 -3 -126 -12z m182
-117 c22 -6 57 -27 79 -46 132 -112 112 -304 -41 -386 -156 -86 -350 27 -352
204 -1 162 155 276 314 228z"/>
<path d="M1229 3031 l-24 -19 0 -882 c0 -861 0 -882 19 -896 16 -11 80 -14
347 -14 327 0 328 0 343 22 14 20 16 121 16 895 0 860 0 873 -20 893 -19 19
-33 20 -339 20 -299 0 -320 -1 -342 -19z m581 -896 l0 -795 -245 0 -245 0 0
788 c0 434 3 792 7 795 3 4 114 7 245 7 l238 0 0 -795z"/>
<path d="M2179 3031 l-24 -19 0 -734 0 -733 57 -3 58 -3 2 693 3 693 178 3
177 2 0 -98 c0 -111 11 -132 67 -132 26 0 37 9 66 49 89 123 228 176 462 175
263 -2 417 -78 496 -247 68 -147 75 -240 71 -869 l-3 -468 -200 0 -199 0 0
443 c-1 477 -7 549 -53 650 -33 74 -79 121 -145 154 -52 25 -67 28 -163 28
-101 0 -109 -2 -175 -35 -80 -41 -131 -101 -166 -195 -22 -58 -22 -72 -26
-552 l-3 -493 -195 0 -194 0 0 60 0 60 -61 0 -61 0 4 -106 c3 -90 6 -108 23
-120 28 -21 552 -20 581 0 18 14 19 34 24 543 5 466 7 533 23 571 43 111 99
147 227 147 97 0 139 -18 178 -75 55 -81 56 -94 60 -650 3 -453 5 -517 19
-532 15 -16 42 -18 304 -18 288 0 289 0 303 23 23 34 25 1144 2 1269 -61 336
-233 494 -577 529 -196 20 -399 -18 -516 -95 l-53 -35 0 50 c0 36 -5 54 -20
69 -19 19 -33 20 -274 20 -235 0 -256 -1 -277 -19z"/>
</g>
</svg>
