<svg version="1.0" xmlns="http://www.w3.org/2000/svg" width="849.000000pt" height="186.000000pt"
  viewBox="0 0 849.000000 186.000000" preserveAspectRatio="xMidYMid meet">

  <g transform="translate(0.000000,186.000000) scale(0.100000,-0.100000)" fill="#000000" stroke="none">
    <path d="M1465 1848 c-164 -31 -313 -168 -365 -336 -45 -145 -12 -321 80 -425
l30 -34 -64 -134 c-63 -132 -129 -291 -142 -342 -9 -38 -19 -33 -33 16 -35
117 -141 287 -241 387 -70 70 -120 105 -230 160 -47 23 -88 48 -92 54 -14 21
-8 46 16 61 23 15 28 15 78 -6 29 -13 82 -40 117 -61 34 -21 65 -38 68 -38 3
0 4 30 1 68 -6 83 -32 136 -92 189 -98 86 -244 86 -343 -1 -119 -105 -124
-276 -12 -388 79 -79 201 -99 302 -49 40 20 40 20 68 1 39 -28 120 -119 161
-182 37 -55 102 -178 96 -182 -2 -1 -25 -10 -51 -20 -112 -42 -197 -148 -197
-246 0 -93 71 -189 175 -236 224 -101 501 -3 546 194 14 58 2 110 -40 173 -31
45 -108 103 -155 115 -14 3 -29 10 -31 15 -10 15 153 389 169 389 2 0 30 -12
62 -27 123 -56 303 -41 422 37 182 118 268 327 217 525 -61 231 -281 369 -520
323z" />
    <path d="M7769 1371 c-80 -25 -144 -87 -165 -159 -39 -132 36 -252 182 -296
180 -53 197 -60 230 -93 30 -30 34 -40 34 -88 0 -94 -64 -145 -182 -145 -75 0
-137 25 -190 77 l-36 35 -29 -20 c-15 -11 -36 -28 -45 -39 -17 -18 -16 -21 20
-55 85 -81 175 -112 306 -106 77 3 99 8 145 33 67 37 107 85 127 153 27 91 2
182 -68 249 -39 37 -83 57 -194 88 -94 27 -119 38 -156 73 -23 21 -28 34 -28
75 0 40 5 53 28 77 35 35 102 54 159 46 47 -6 112 -36 132 -60 19 -23 33 -20
76 17 l38 33 -47 41 c-26 23 -68 49 -93 57 -49 17 -197 21 -244 7z" />
    <path d="M2510 1275 l0 -85 140 0 140 0 0 -345 0 -345 95 0 95 0 0 345 0 345
140 0 140 0 0 85 0 85 -375 0 -375 0 0 -85z" />
    <path d="M3320 1355 c0 -3 48 -196 106 -430 l106 -425 104 0 c89 0 103 2 108
18 3 9 35 129 71 267 37 137 68 252 71 254 9 9 17 -15 73 -230 32 -123 64
-243 70 -266 l12 -43 102 0 102 0 108 423 c59 232 107 425 107 430 0 4 -44 7
-98 7 l-97 0 -59 -295 c-32 -163 -63 -298 -67 -301 -5 -3 -12 8 -15 23 -4 15
-37 145 -74 288 l-66 260 -89 0 -89 0 -71 -283 c-38 -156 -75 -283 -80 -282
-6 1 -37 134 -69 296 l-60 294 -103 0 c-57 0 -103 -2 -103 -5z" />
    <path d="M4550 930 l0 -430 310 0 310 0 0 85 0 85 -210 0 -210 0 0 95 0 95
155 0 155 0 0 80 0 80 -155 0 -155 0 0 85 0 85 195 0 195 0 0 85 0 85 -295 0
-295 0 0 -430z" />
    <path d="M5300 930 l0 -430 310 0 310 0 0 85 0 85 -212 2 -213 3 0 90 0 90
153 3 152 3 0 79 0 79 -152 3 -153 3 0 80 0 80 198 3 197 2 0 85 0 85 -295 0
-295 0 0 -430z" />
    <path d="M6050 930 l0 -430 95 0 95 0 0 275 c0 151 4 275 9 275 4 0 91 -124
192 -275 l184 -274 88 -1 87 0 0 430 0 430 -95 0 -95 0 0 -270 c0 -148 -3
-270 -7 -270 -5 0 -89 122 -187 270 l-179 270 -94 0 -93 0 0 -430z" />
    <path d="M7320 1035 c0 -351 -2 -367 -54 -414 -20 -19 -40 -26 -85 -29 -63 -5
-105 10 -151 54 l-25 23 -45 -38 -45 -39 24 -26 c14 -15 52 -40 85 -56 52 -26
70 -30 145 -30 132 1 202 39 247 135 24 50 24 53 24 398 l0 347 -60 0 -60 0 0
-325z" />
  </g>
</svg>