<svg version="1.0" xmlns="http://www.w3.org/2000/svg"
 width="512.000000pt" height="512.000000pt" viewBox="0 0 512.000000 512.000000"
 preserveAspectRatio="xMidYMid meet">
<g transform="translate(0.000000,512.000000) scale(0.100000,-0.100000)"
fill="#F5D256" stroke="none">
<path d="M1937 4640 c-647 -78 -1176 -524 -1346 -1135 -55 -195 -56 -216 -56
-935 0 -596 2 -675 18 -757 30 -158 100 -372 124 -380 6 -2 31 6 57 17 39 16
47 24 40 38 -29 68 -85 254 -100 337 -17 91 -19 159 -19 755 0 597 2 664 19
755 53 283 178 531 370 732 213 224 466 365 771 432 l120 26 690 0 c684 0 691
0 795 -23 208 -46 376 -117 543 -229 54 -36 99 -64 100 -62 2 2 18 23 36 46
l32 42 -68 50 c-185 136 -401 228 -653 277 -73 15 -175 17 -745 19 -363 2
-691 -1 -728 -5z"/>
<path d="M4155 4200 l-39 -40 42 -43 42 -42 42 42 42 43 -39 40 c-21 22 -42
40 -45 40 -3 0 -24 -18 -45 -40z"/>
<path d="M4319 4077 c-8 -7 -28 -22 -43 -34 l-27 -22 54 -71 c145 -190 246
-435 277 -672 8 -56 10 -300 7 -753 -3 -640 -4 -674 -25 -756 -69 -286 -194
-511 -392 -709 -204 -204 -450 -338 -743 -402 -101 -23 -112 -23 -802 -23
-690 0 -701 0 -802 23 -288 63 -524 187 -724 379 -96 93 -199 220 -254 316
-15 26 -29 47 -32 47 -3 0 -27 -12 -54 -27 l-49 -26 27 -46 c67 -116 137 -206
253 -322 232 -233 491 -373 817 -441 104 -21 131 -22 748 -26 448 -3 673 0
750 8 475 51 900 311 1158 710 105 163 173 329 219 532 23 102 23 107 23 818
0 705 0 716 -22 816 -31 139 -85 291 -144 404 -49 93 -176 281 -195 287 -5 1
-16 -3 -25 -10z"/>
<path d="M3058 3658 c-179 -17 -338 -115 -439 -271 -52 -80 -80 -166 -86 -269
-4 -64 -9 -88 -19 -88 -38 0 -223 42 -303 69 -236 79 -484 240 -626 407 -41
48 -52 55 -78 52 -88 -9 -154 -267 -113 -441 9 -37 29 -93 45 -125 l29 -58
-29 4 c-20 3 -37 -2 -51 -14 -18 -17 -20 -26 -14 -92 11 -138 75 -273 172
-368 l45 -43 -21 -21 c-28 -28 -26 -46 17 -131 53 -107 161 -213 272 -267 l83
-40 -38 -20 c-137 -69 -298 -103 -477 -101 -140 1 -157 -4 -157 -52 0 -42 26
-62 163 -128 275 -133 552 -186 841 -161 575 49 1025 351 1272 855 101 206
150 390 161 598 l6 108 121 122 c142 143 157 166 135 205 -12 23 -21 27 -54
26 -22 -1 -49 -4 -61 -8 -19 -7 -17 1 19 74 34 67 39 85 31 108 -17 48 -49 49
-144 4 -47 -22 -117 -50 -156 -62 l-72 -23 -43 35 c-114 92 -265 133 -431 116z
m265 -156 c34 -16 83 -47 109 -70 26 -22 56 -43 66 -46 10 -4 58 5 107 19 48
14 90 24 92 21 2 -2 -27 -30 -66 -61 -57 -46 -71 -63 -71 -85 0 -44 31 -64 86
-55 26 3 54 9 63 12 16 5 -10 -21 -81 -82 l-35 -30 -6 -145 c-17 -369 -157
-690 -417 -951 -212 -214 -469 -344 -780 -396 -128 -21 -366 -21 -490 1 -95
16 -288 71 -303 85 -5 5 15 11 43 15 201 27 530 190 530 263 0 39 -27 63 -69
63 -110 0 -244 64 -333 159 l-62 66 84 13 c92 14 120 31 120 72 0 36 -13 45
-91 69 -148 46 -272 173 -314 320 -7 22 -5 23 16 17 13 -4 58 -10 99 -13 63
-5 79 -3 93 11 25 26 21 64 -10 89 -63 51 -130 126 -152 170 -49 100 -64 218
-40 312 l11 44 92 -80 c260 -227 554 -357 904 -399 82 -10 96 -10 118 5 25 16
25 17 18 120 -6 89 -4 112 15 173 54 180 210 309 396 330 91 11 188 -3 258
-36z"/>
</g>
</svg>
