<svg version="1.0" xmlns="http://www.w3.org/2000/svg" width="800.000000pt" height="800.000000pt"
  viewBox="0 0 800.000000 800.000000" preserveAspectRatio="xMidYMid meet">

  <g transform="translate(0.000000,800.000000) scale(0.100000,-0.100000)" fill="#000000" stroke="none">
    <path d="M5250 7889 c-135 -18 -248 -67 -274 -117 -41 -81 -56 -368 -30 -572
22 -170 22 -213 4 -338 -11 -75 -17 -96 -34 -107 -31 -19 -122 -38 -146 -30
-51 16 -91 7 -155 -35 l-65 -42 -40 16 c-69 27 -115 21 -189 -26 -61 -39 -71
-42 -141 -43 -80 -1 -160 -30 -225 -80 -19 -14 -84 -38 -161 -59 -502 -136
-1229 -398 -1547 -557 -297 -149 -717 -388 -913 -520 -360 -242 -713 -660
-869 -1030 -80 -190 -126 -370 -128 -499 -2 -90 11 -130 41 -130 9 0 63 44
119 98 238 231 704 582 903 682 25 12 84 46 131 76 47 30 91 54 97 54 20 0 98
-100 139 -178 75 -141 117 -301 153 -577 26 -198 50 -296 100 -403 137 -293
410 -483 780 -546 52 -9 190 -20 305 -26 116 -5 241 -15 279 -20 277 -41 460
-137 606 -316 92 -114 132 -154 176 -180 l42 -25 -30 -77 c-79 -202 -97 -354
-98 -842 -1 -357 -11 -487 -38 -532 -11 -18 -32 -72 -46 -119 -14 -47 -45
-117 -68 -155 -60 -99 -78 -153 -78 -232 1 -139 64 -202 260 -263 61 -19 97
-23 195 -23 198 1 320 34 345 95 18 43 7 173 -25 294 -21 79 -25 112 -20 159
4 35 1 86 -6 121 -9 49 -9 69 0 96 7 19 16 109 21 200 5 91 14 185 20 209 19
69 97 255 166 393 96 193 124 311 124 523 l0 106 39 54 c22 30 45 77 52 105
11 43 20 55 78 98 89 66 179 160 240 250 31 45 52 68 55 60 35 -98 79 -268 83
-320 l6 -67 -95 -93 c-71 -70 -103 -110 -124 -155 -28 -60 -29 -61 -66 -60
-55 1 -63 -12 -66 -118 -7 -171 32 -363 118 -591 83 -219 108 -403 75 -558 -8
-38 -32 -121 -55 -186 -45 -133 -51 -201 -21 -266 54 -119 170 -145 645 -145
198 0 307 -5 451 -21 213 -24 387 -22 470 5 28 8 70 32 93 52 37 31 42 41 42
76 0 64 -42 95 -217 164 -191 74 -299 128 -453 227 -183 117 -198 127 -206
145 -13 29 -17 460 -4 577 6 61 29 201 51 313 53 277 52 302 -18 302 -18 0
-33 1 -33 3 5 34 45 167 64 212 29 69 45 184 38 267 -4 51 -1 61 31 115 127
206 153 599 71 1058 -13 77 -27 152 -30 167 l-6 26 69 -25 c89 -32 166 -46
214 -38 78 13 196 155 255 307 17 44 47 95 75 128 133 158 200 312 201 465 1
129 -35 222 -127 323 -35 40 -36 41 -24 87 24 94 -1 225 -58 318 l-24 38 17
70 c12 50 15 95 12 163 -4 82 -10 105 -41 171 -46 97 -135 192 -217 232 -42
20 -65 39 -85 71 -32 50 -73 75 -121 70 -28 -2 -40 4 -64 30 -27 30 -35 33
-80 31 -46 -3 -51 0 -72 30 -15 22 -52 48 -103 75 -72 37 -88 41 -158 42 -43
1 -81 4 -84 8 -3 3 -10 84 -14 178 -6 144 -4 204 13 363 28 253 30 501 5 572
-39 112 -165 168 -402 178 -55 2 -134 -1 -175 -6z m238 -109 c105 -14 184 -43
216 -80 20 -24 25 -45 31 -115 16 -183 -34 -585 -84 -683 -30 -58 -82 -99
-137 -108 -25 -3 -101 -4 -168 -2 -158 6 -176 15 -222 111 -27 59 -38 102 -59
240 -14 92 -25 200 -25 240 0 113 21 290 37 315 29 47 157 87 288 91 22 0 78
-4 123 -9z m-311 -1025 c10 -5 98 -11 195 -13 176 -4 178 -4 221 22 24 14 63
41 87 61 26 22 47 32 52 27 5 -5 10 -76 11 -157 l1 -148 -73 -38 c-52 -28 -85
-39 -116 -39 -53 0 -237 47 -357 90 -83 30 -89 34 -143 102 l-57 70 7 77 c4
42 9 79 12 84 2 4 35 -23 74 -60 38 -37 77 -72 86 -78z m-304 -94 c37 -10 85
-30 108 -45 22 -15 49 -29 59 -31 10 -2 29 -9 41 -16 57 -30 405 -119 468
-119 52 0 101 18 207 79 81 46 96 51 150 51 81 0 145 -32 212 -104 28 -32 52
-62 52 -68 0 -7 14 -8 36 -5 44 7 70 -4 105 -45 25 -29 27 -30 63 -18 47 15
80 7 94 -24 10 -22 8 -24 -26 -30 -89 -14 -132 -8 -181 28 -48 35 -148 88
-190 101 -14 4 -45 18 -69 31 -62 33 -120 31 -287 -12 -165 -42 -185 -41 -385
13 -154 41 -249 47 -425 23 -131 -17 -242 -3 -369 47 -54 21 -116 37 -153 41
-35 2 -63 8 -63 12 0 4 24 19 53 33 84 43 137 34 230 -37 27 -21 51 -36 53
-34 2 2 -8 21 -22 42 l-25 37 27 22 c66 53 122 60 237 28z m-358 -176 c79 -35
142 -46 281 -52 108 -4 165 -2 243 11 116 20 128 18 319 -30 167 -43 224 -43
362 -4 58 16 132 33 165 36 59 6 62 5 170 -52 140 -74 242 -142 285 -190 70
-80 125 -249 118 -361 -7 -114 -47 -127 -189 -63 -50 22 -129 53 -177 68 -84
26 -95 27 -312 27 -244 0 -292 -6 -521 -60 -269 -64 -320 -52 -590 147 -37 26
-71 48 -77 48 -19 0 -69 -103 -76 -155 -16 -125 -88 -280 -169 -363 -95 -97
-195 -116 -300 -58 -34 19 -79 42 -100 51 -35 14 -30 8 51 -72 110 -109 149
-169 222 -340 69 -159 144 -288 235 -400 l66 -83 49 0 c64 0 167 -33 216 -69
21 -16 65 -54 97 -84 43 -42 57 -63 57 -84 0 -66 -226 -273 -297 -273 -49 0
-102 25 -112 53 -5 14 -36 45 -68 71 -76 59 -103 106 -103 179 0 53 -2 57 -42
90 -66 54 -165 114 -393 242 -303 169 -415 252 -479 353 -37 58 -86 211 -86
265 0 60 12 88 67 161 59 78 94 156 127 280 34 130 68 190 123 223 89 52 175
38 258 -42 25 -25 45 -39 45 -32 0 29 -62 108 -114 146 -53 39 -55 42 -49 78
19 132 136 259 293 317 124 46 324 56 405 21z m-747 -162 c-32 -63 -51 -115
-60 -164 -11 -54 -14 -59 -37 -59 -42 0 -123 -44 -162 -87 -46 -51 -79 -121
-117 -250 -17 -55 -37 -113 -44 -127 -11 -21 -60 -47 -233 -125 -579 -259
-1217 -575 -1587 -787 -360 -206 -760 -500 -990 -727 -57 -56 -88 -80 -88 -69
0 9 11 62 24 117 104 428 357 806 746 1116 122 98 222 167 390 270 570 348
1171 608 1930 834 227 68 234 69 228 58z m2787 -125 c65 -34 149 -123 183
-195 23 -51 26 -70 26 -163 0 -83 -5 -118 -22 -167 l-22 -63 36 -56 c52 -81
74 -154 74 -243 0 -96 -19 -137 -78 -169 -45 -25 -118 -89 -111 -97 3 -2 34 7
69 21 163 66 260 -10 260 -202 0 -136 -85 -334 -192 -444 -13 -14 -32 -52 -42
-85 -35 -118 -137 -264 -209 -302 -45 -23 -134 -12 -211 26 -98 49 -104 56
-121 146 -23 123 -20 181 11 219 42 50 92 76 148 76 71 0 173 20 186 36 16 19
-4 77 -46 135 -54 74 -74 127 -73 194 2 100 11 116 84 141 15 5 3 11 -45 23
-64 16 -126 48 -149 75 -9 10 1 40 44 127 63 131 80 197 72 289 l-5 65 59 28
c33 16 65 38 71 50 8 14 13 62 13 127 0 84 -5 117 -23 164 -29 79 -76 155
-137 223 l-49 56 74 -5 c53 -3 90 -12 125 -30z m-1716 -441 c49 -25 122 -53
165 -62 74 -17 79 -16 184 5 59 12 152 32 207 43 84 17 138 21 335 21 259 1
316 -8 489 -74 l80 -31 6 -52 c12 -95 -18 -224 -80 -347 -82 -163 -123 -329
-132 -537 l-6 -131 -29 -6 c-16 -3 -114 -11 -216 -17 -233 -14 -366 -4 -508
41 -105 33 -371 159 -397 188 -16 19 -47 174 -47 239 0 34 5 45 23 54 30 16
107 79 107 88 0 4 -42 7 -92 6 -88 0 -97 2 -158 35 -45 24 -100 70 -177 147
l-112 112 35 58 c50 83 74 170 74 264 0 44 5 88 12 98 10 17 16 14 80 -39 37
-32 108 -78 157 -103z m-441 -476 c68 -68 181 -157 274 -215 l46 -30 22 -115
c12 -64 25 -136 30 -161 5 -27 5 -49 -1 -54 -5 -6 -9 -30 -9 -54 0 -43 -1 -44
-27 -37 -16 4 -62 12 -102 19 l-75 12 -53 69 c-88 115 -144 220 -194 366 -27
76 -57 155 -67 175 l-19 37 51 28 c28 15 52 28 53 28 1 1 33 -30 71 -68z
m-1121 -191 c84 -175 184 -253 546 -429 338 -164 457 -239 457 -287 0 -63 23
-114 78 -175 44 -49 56 -68 54 -90 -3 -22 4 -32 35 -53 21 -15 61 -33 90 -42
l51 -15 -23 -68 c-13 -38 -27 -77 -33 -87 -6 -11 -68 -72 -139 -136 -358 -327
-723 -564 -1015 -659 l-103 -34 -220 0 c-192 1 -233 4 -323 23 -254 56 -424
161 -537 331 -69 105 -135 273 -135 345 0 45 111 265 207 411 130 197 253 348
483 594 121 130 466 461 479 461 3 -1 25 -41 48 -90z m3057 -130 c14 0 17 -5
11 -22 -4 -13 -9 -51 -12 -84 -6 -76 7 -108 83 -195 30 -35 53 -70 52 -79 -3
-12 -24 -15 -116 -17 -84 -1 -120 -6 -137 -17 -13 -9 -27 -16 -30 -16 -18 0
20 316 50 417 l16 52 32 -19 c18 -11 40 -20 51 -20z m-1179 -378 c249 -69 438
-87 724 -71 96 6 178 11 182 12 5 1 11 -38 14 -88 2 -49 16 -143 30 -207 65
-304 76 -364 102 -528 23 -152 27 -206 27 -410 1 -188 -3 -248 -16 -301 -27
-104 -57 -176 -102 -243 -41 -62 -42 -64 -35 -127 10 -98 -7 -213 -51 -352
l-41 -126 -67 -8 c-147 -18 -565 -3 -589 21 -3 2 8 30 23 61 48 96 143 165
229 165 l28 0 -8 92 c-9 122 -34 214 -101 382 l-56 138 35 108 c21 64 46 174
62 271 65 402 75 466 85 498 22 78 -13 31 -53 -71 -15 -37 -58 -184 -96 -326
-39 -142 -82 -290 -96 -328 -74 -196 -199 -366 -360 -490 -67 -50 -73 -58 -79
-99 -8 -62 -36 -113 -99 -182 -80 -86 -131 -193 -66 -139 17 14 35 26 40 26
12 0 2 -154 -18 -254 -21 -109 -68 -245 -146 -417 -91 -202 -97 -226 -110
-436 l-11 -183 -34 -6 c-19 -4 -64 -4 -101 0 -70 6 -221 41 -232 54 -4 4 -3
37 2 73 4 36 15 191 23 346 20 361 34 468 93 697 42 164 80 233 232 423 l82
103 -25 102 c-39 159 -49 264 -43 438 9 221 41 410 119 689 33 122 34 123 118
178 30 19 101 81 158 137 l103 101 -4 44 c-4 37 -14 53 -65 105 -49 50 -58 65
-52 81 5 11 9 37 9 57 2 66 5 69 69 43 31 -13 107 -37 167 -53z m125 -2514
c59 -20 84 -22 290 -22 211 1 292 8 469 40 l34 7 -7 -34 c-5 -19 -12 -52 -17
-74 -10 -41 -44 -260 -59 -375 -16 -124 -22 -361 -15 -536 8 -205 -2 -185 143
-264 53 -29 142 -80 197 -113 169 -101 241 -137 358 -176 176 -60 207 -81 167
-121 -25 -25 -74 -37 -202 -49 -103 -10 -200 -5 -338 19 -154 26 -331 41 -581
49 -299 10 -328 16 -368 67 -33 42 -25 112 27 242 55 137 63 191 51 354 -16
215 -30 274 -129 523 -35 88 -49 134 -80 270 -20 88 -27 215 -12 215 4 0 36
-10 72 -22z m-820 -1166 c20 -8 29 -25 48 -92 17 -57 21 -85 13 -93 -7 -7 -15
-6 -25 2 -9 7 -19 11 -24 9 -14 -5 31 -189 72 -299 42 -112 43 -127 16 -162
-32 -40 -81 -51 -212 -49 -210 3 -311 32 -379 109 -24 28 -29 43 -29 84 0 94
44 156 186 261 46 34 82 63 80 65 -2 2 -24 -2 -50 -9 -29 -8 -49 -9 -55 -3
-19 19 10 94 57 147 l46 51 116 -6 c63 -2 126 -9 140 -15z" />
  </g>
</svg>